Coordinates
version=1
nRows=29
nColumns=22
inDegrees=yes

Units are S.I. units (second, meters, Newtons, ...)
If the header above contains a line with 'inDegrees', this indicates whether rotational values are in degrees (yes) or radians (no).

endheader
time	pelvis_tilt	pelvis_list	pelvis_rotation	pelvis_tx	pelvis_ty	pelvis_tz	hip_flexion_r	hip_adduction_r	hip_rotation_r	knee_angle_r	ankle_angle_r	subtalar_angle_r	hip_flexion_l	hip_adduction_l	hip_rotation_l	knee_angle_l	ankle_angle_l	subtalar_angle_l	lumbar_extension	lumbar_bending	lumbar_rotation
      1.00000000	      4.86103418	     -0.55091059	      5.42170330	     -0.72347887	      0.94425537	      0.10082155	     16.73074762	     -3.46730586	     -7.31989201	    -55.98654106	      3.97752943	      4.28455040	     -1.14445060	      4.51253450	     -2.55985183	    -20.17869825	     22.33836953	    -15.42632678	    -14.85870079	      3.67851354	    -11.59937095
      1.01000000	      5.06249456	     -0.87887613	      6.01291217	     -0.71412544	      0.94489967	      0.09980054	     17.53307047	     -3.17446393	     -7.93815701	    -54.10725124	      4.58830667	      4.09621019	     -2.28908751	      4.06253279	     -2.05666374	    -19.54765929	     22.63088891	    -15.22386299	    -14.92761984	      4.16073477	    -12.20249586
      1.02000000	      5.20001256	     -1.16632865	      6.57862725	     -0.70471198	      0.94517949	      0.09888983	     18.32047383	     -2.91489757	     -8.54514591	    -52.05393743	      5.11018472	      4.07668710	     -3.32433927	      3.62923766	     -1.64055445	    -18.99159880	     22.99456164	    -14.98889865	    -14.91543719	      4.56867105	    -12.79895975
      1.03000000	      5.42483673	     -1.39705551	      7.06474600	     -0.69515004	      0.94540481	      0.09818048	     18.90798279	     -2.64809949	     -9.06228828	    -49.79452643	      5.38808739	      4.03899791	     -4.50699597	      3.22107353	     -1.31807340	    -18.34962308	     23.30559597	    -14.54362263	    -15.00898770	      4.88348341	    -13.31219229
      1.04000000	      5.52265102	     -1.58368655	      7.55298671	     -0.68555019	      0.94513104	      0.09750546	     19.55544986	     -2.44175850	     -9.61528220	    -47.40920846	      5.56113444	      4.12445814	     -5.48875486	      2.84888538	     -1.05917980	    -17.83563902	     23.73192415	    -14.17724999	    -14.95022185	      5.12057694	    -13.86056293
      1.05000000	      5.69017151	     -1.70787734	      7.94623787	     -0.67580130	      0.94476128	      0.09700537	     20.02698104	     -2.22504531	    -10.06064379	    -44.85058112	      5.49899059	      4.28652444	     -6.60869206	      2.52191870	     -0.90011438	    -17.23325567	     24.06476061	    -13.58352610	    -14.98315742	      5.26426728	    -14.30752018
      1.06000000	      5.73490651	     -1.78829359	      8.35284169	     -0.66600273	      0.94391244	      0.09651842	     20.54940681	     -2.06962686	    -10.57587623	    -42.18220118	      5.23909477	      4.44384477	     -7.54727298	      2.24245977	     -0.73410477	    -16.74565525	     24.50237258	    -13.19766862	    -14.86921564	      5.32812509	    -14.81514872
      1.07000000	      5.85461147	     -1.80983453	      8.66455486	     -0.65602084	      0.94296538	      0.09619216	     20.88531833	     -1.89293103	    -11.00549072	    -39.36246940	      4.84093848	      4.78851869	     -8.64115680	      2.01063125	     -0.65517419	    -16.16471193	     24.83962242	    -12.62780585	    -14.85185008	      5.30543695	    -15.21041009
      1.08000000	      5.87563204	     -1.79760386	      9.00209627	     -0.64598787	      0.94159620	      0.09583685	     21.24274892	     -1.76147578	    -11.52680560	    -36.45563410	      4.21774769	      5.05922285	     -9.58335808	      1.81564880	     -0.55275447	    -15.69243541	     25.25898947	    -12.30121924	    -14.72037945	      5.22928191	    -15.67122954
      1.09000000	      5.97514241	     -1.74422469	      9.26234327	     -0.63575177	      0.94012772	      0.09562091	     21.40843813	     -1.57794996	    -11.95837027	    -33.43132660	      3.60908941	      5.62074736	    -10.68092586	      1.65147769	     -0.50710146	    -15.13568824	     25.61732337	    -11.87195904	    -14.68456563	      5.09558085	    -16.02196039
      1.10000000	      6.03104630	     -1.66642694	      9.52323021	     -0.62541515	      0.93834458	      0.09543404	     21.54868824	     -1.39610595	    -12.41509373	    -30.38314195	      2.87237746	      6.21749918	    -11.71034117	      1.50651836	     -0.48679742	    -14.64631067	     26.01042094	    -11.54423814	    -14.60226826	      4.91835005	    -16.37716169
      1.11000000	      6.09356819	     -1.57447343	      9.76561334	     -0.61495721	      0.93634587	      0.09531657	     21.61480883	     -1.17618748	    -12.80659014	    -27.34237406	      2.12736186	      6.88839826	    -12.74027743	      1.36528369	     -0.50047467	    -14.19849784	     26.41376400	    -11.24878879	    -14.53573395	      4.71691562	    -16.69439687
      1.12000000	      6.16173523	     -1.48679301	      9.98951217	     -0.60437008	      0.93414712	      0.09527127	     21.62743804	     -0.90651950	    -13.10218025	    -24.37360793	      1.43103064	      7.62617974	    -13.76784466	      1.21057429	     -0.54928003	    -13.78887270	     26.83412138	    -10.95037822	    -14.48077792	      4.51401373	    -16.96324284
      1.13000000	      6.24498460	     -1.41195823	     10.21416821	     -0.59370211	      0.93178464	      0.09527266	     21.58591352	     -0.58909157	    -13.25554616	    -21.52383245	      0.85090245	      8.36166995	    -14.76733312	      1.02944687	     -0.62404202	    -13.47694885	     27.28305812	    -10.64416683	    -14.45781405	      4.32707459	    -17.20242031
      1.14000000	      6.34554937	     -1.36257454	     10.44027086	     -0.58293282	      0.92928796	      0.09529858	     21.50385284	     -0.23259366	    -13.27338221	    -18.86183410	      0.44954871	      9.07413692	    -15.74356569	      0.81233024	     -0.72222235	    -13.25315277	     27.75928447	    -10.32883540	    -14.46477341	      4.17625345	    -17.40382477
      1.15000000	      6.45577994	     -1.36610198	     10.67257617	     -0.57203450	      0.92666588	      0.09530981	     21.40552981	      0.16676552	    -13.18611023	    -16.45168291	      0.22134038	      9.69716319	    -16.68477369	      0.53606701	     -0.84496261	    -13.11652093	     28.30430369	    -10.03889942	    -14.48044194	      4.10181344	    -17.59077358
      1.16000000	      6.60526171	     -1.38263697	     10.91914130	     -0.56103857	      0.92401680	      0.09529414	     21.26732477	      0.55645429	    -12.99401113	    -14.36364881	      0.27201957	     10.42912336	    -17.62885258	      0.24133810	     -0.90172910	    -13.06266941	     28.79058210	     -9.69339766	    -14.55526630	      4.05706365	    -17.72262912
      1.17000000	      6.77396460	     -1.46691064	     11.18820706	     -0.54992347	      0.92132629	      0.09522239	     21.12980497	      0.97241597	    -12.79458740	    -12.64842303	      0.43605984	     10.89091523	    -18.50437945	     -0.13208488	     -1.00371910	    -13.17068928	     29.32629362	     -9.46869002	    -14.64738398	      4.11488004	    -17.86099470
      1.18000000	      6.95493059	     -1.61002151	     11.46305821	     -0.53865071	      0.91862021	      0.09510452	     21.02668065	      1.40090267	    -12.62595008	    -11.38970143	      0.70676685	     11.21084687	    -19.33991380	     -0.56282187	     -1.09530134	    -13.37820628	     29.87845974	     -9.28949944	    -14.74285190	      4.25875758	    -17.97219081
      1.19000000	      7.11089515	     -1.80907147	     11.74160448	     -0.52721781	      0.91587339	      0.09495441	     21.02061186	      1.83019570	    -12.52702210	    -10.65028420	      1.04552216	     11.31127086	    -20.07173516	     -1.04425436	     -1.21768718	    -13.73163670	     30.46175582	     -9.20756274	    -14.79637477	      4.47426643	    -18.07506031
      1.20000000	      7.31860710	     -2.09888047	     12.00324404	     -0.51550109	      0.91329181	      0.09478815	     20.98335931	      2.33771592	    -12.46811014	    -10.34084431	      1.25208153	     11.26815824	    -20.85805746	     -1.61361574	     -1.30296959	    -14.08851683	     30.87599186	     -9.08686528	    -14.87287156	      4.81599255	    -18.11930301
      1.21000000	      7.46997347	     -2.43398592	     12.25595826	     -0.50357671	      0.91070323	      0.09462593	     21.07410323	      2.84458120	    -12.47009193	    -10.54976541	      1.42271565	     11.07959164	    -21.51541954	     -2.21733906	     -1.43493673	    -14.58343234	     31.29458321	     -9.03603832	    -14.86163454	      5.20397727	    -18.17605103
      1.22000000	      7.62822987	     -2.87349498	     12.48944728	     -0.49129474	      0.90828555	      0.09447849	     21.16564201	      3.45022216	    -12.52482429	    -11.11637491	      1.33256300	     10.45188994	    -22.18729625	     -2.91824742	     -1.53631096	    -15.06745923	     31.55482110	     -8.84664021	    -14.80182873	      5.71657542	    -18.15921410
      1.23000000	      7.71733422	     -3.35354715	     12.68573142	     -0.47872006	      0.90594465	      0.09437777	     21.38899980	      4.06348210	    -12.66577618	    -12.11368250	      1.07221323	      9.64341260	    -22.75517918	     -3.64046611	     -1.71026929	    -15.62720632	     31.65950915	     -8.63733640	    -14.62796459	      6.25797816	    -18.14000952
      1.24000000	      7.76001644	     -3.91954383	     12.87380138	     -0.46579847	      0.90377493	      0.09429231	     21.65671987	      4.74744567	    -12.84512680	    -13.34030307	      0.55602366	      8.75999273	    -23.25644682	     -4.43879862	     -1.83540737	    -16.22083980	     31.63898384	     -8.38768136	    -14.34443851	      6.89000262	    -18.08708737
      1.25000000	      7.78011250	     -4.51351448	     13.03414135	     -0.45259610	      0.90187451	      0.09425124	     21.95676356	      5.44709572	    -13.09498977	    -14.77315534	     -0.16111911	      7.61071229	    -23.70147528	     -5.26116933	     -1.98286648	    -16.88803045	     31.31883545	     -8.00387217	    -14.00640173	      7.54464370	    -18.00889376
      1.26000000	      7.76996924	     -5.16237238	     13.18353539	     -0.43906862	      0.90027167	      0.09422741	     22.26628580	      6.19364555	    -13.37235512	    -16.28200267	     -1.01588851	      6.35866237	    -24.08834158	     -6.13624117	     -2.08765426	    -17.60174190	     30.75919591	     -7.52070552	    -13.58265181	      8.25558816	    -17.93122701
      1.27000000	      7.74677205	     -5.84481059	     13.31691934	     -0.42526640	      0.89902691	      0.09422536	     22.56014351	      6.97379045	    -13.65071942	    -17.81383757	     -1.84898271	      5.03004457	    -24.41646693	     -7.04671949	     -2.16065907	    -18.39115561	     29.92272053	     -6.90746502	    -13.10507248	      8.99977032	    -17.85281761
      1.28000000	      7.73392626	     -6.52927510	     13.44304442	     -0.41127106	      0.89821413	      0.09423092	     22.79314768	      7.76851149	    -13.88055125	    -19.31386461	     -2.51358009	      3.69937179	    -24.67538707	     -7.97102123	     -2.18302365	    -19.30823792	     28.73471737	     -6.15525511	    -12.61878828	      9.74526742	    -17.77305901
